# xmcd
#
# Track frame offsets: 
#        150
#        14310
#        28455
#        41277
#        55527
#        66037
#        79907
#        92932
#        105980
#        121970
#        136742
#        150587
#        161340
#        173775
#        186727
#        199660
#        213480
#        228885
#        240310
#        251642
#        265897
#        275442
#        287342
#
# Disc length: 4009 seconds
#
# Revision: 0
# Processed by: cddbd v1.5.1PL2 Copyright (c) Steve Scherf et al.
# Submitted via: ExactAudioCopy v0.95b4
#
DISCID=340fa717
DTITLE=Tex Morton - Regal Zonophone Collection Vol. 2 1938-1943 Disc 1
DYEAR=1993
DGENRE=
TTITLE0=Move Along Baldy
TTITLE1=Dying Duffer's Prayer
TTITLE2=Young Pat Maloney
TTITLE3=Dreaming With Tears In My Eyes
TTITLE4=My Old Crippled Lady
TTITLE5=Old Man Duff
TTITLE6=Crime Does Not Pay
TTITLE7=Bonny Blue Eyes
TTITLE8=My Old Bunkhouse Buddies
TTITLE9=Travel By Train
TTITLE10=Murrumbridgee Jack
TTITLE11=Dreams Of Silver And Memories Of Gold
TTITLE12=Rocky Ned (The Outlaw)
TTITLE13=I'll Be Hanged (If They're Gonna Hang Me)
TTITLE14=I'm Gonna Yodel My Way To Heaven
TTITLE15=The Day I Left Daddy Alone
TTITLE16=The Ned Kelly Song
TTITLE17=Hand Me Down My Walking Cane
TTITLE18=Let The Rest Of The World Go By
TTITLE19=Billy Brink, The Shearer
TTITLE20=Little Sweetheart Of Days Gone By
TTITLE21=When The Bloom Is On The Sage
TTITLE22=Sleepy Hollow
EXTD=
EXTT0=
EXTT1=
EXTT2=
EXTT3=
EXTT4=
EXTT5=
EXTT6=
EXTT7=
EXTT8=
EXTT9=
EXTT10=
EXTT11=
EXTT12=
EXTT13=
EXTT14=
EXTT15=
EXTT16=
EXTT17=
EXTT18=
EXTT19=
EXTT20=
EXTT21=
EXTT22=
PLAYORDER=
